# xmcd
#
# Track frame offsets:
#	150
#	12453
#	27160
#	39755
#	50565
#	60985
#	73535
#	87058
#	102917
#	116630
#	131405
#	165035
#	179505
#	194393
#	205523
#	219613
#
# Disc length: 3091
#
# Revision: 2
# Processed by: cddbd v1.5.1PL0 Copyright (c) Steve Scherf et al.
# Submitted via: CDex 1.51
# Normalized: r0:TDELIM( - ),TSWAP
#
DISCID=cc0c1110
DTITLE=Various Artist - Super Soul Blues Volume 2
DYEAR=1991
DGENRE=Blues
TTITLE0=Aaron Neville - Tell it like it is
TTITLE1=Cookie and His Cupcakes - Matilda
TTITLE2=Little Johnny Taylor - Everybody knows about my Good thing
TTITLE3=B.B. King - Recession Blues
TTITLE4=Peppermint Harris - Bad Bad Whiskey
TTITLE5=Jimmy Reed - Bright Lights Big City
TTITLE6=John Fred and his Playboys - Boogie Children
TTITLE7=Toussaint McCall - Nothing Takes the place of you
TTITLE8=Clarence Carter - Can we slip away again
TTITLE9=Montclairs - Dreaming out of Season
TTITLE10=Ernie Johnson - Party All Night
TTITLE11=Na Allen - Bring it on Home
TTITLE12=Tommy Young - That's how Strong My Love Is
TTITLE13=Bobby Patterson - How do you Spell Love
TTITLE14=Louis Villery - Making Nassau Fruit Drink
TTITLE15=Little Johhny Taylor - Open House at My House
EXTD=YEAR: 1991
EXTT0=
EXTT1=
EXTT2=
EXTT3=
EXTT4=
EXTT5=
EXTT6=
EXTT7=
EXTT8=
EXTT9=
EXTT10=
EXTT11=
EXTT12=
EXTT13=
EXTT14=
EXTT15=
PLAYORDER=
